{"title":"Our.Family.Wedding.2010.DVDRip.XviD.UniversalAbsurdity","uid":5663383,"size":783373470,"categoryP":"video","categoryS":"movies","magnet":"?xt=urn:btih:44915c949f1ca553f471d4600dd678f714611dc3&amp;dn=Our.Family.Wedding.2010.DVDRip.XviD.UniversalAbsurdity&amp;tr=udp%3A%2F%2Ftracker.openbittorrent.com%3A80&amp;tr=udp%3A%2F%2Fopen.demonii.com%3A1337&amp;tr=udp%3A%2F%2Ftracker.coppersurfer.tk%3A6969&amp;tr=udp%3A%2F%2Fexodus.desync.com%3A6969","seeders":1,"leechers":0,"uploader":"Absurdity","files":1,"time":1278048451,"description":"\n\nFormat : AVI \nFormat/Info : Audio Video Interleave \nFile size : 747 MiB \nDuration : 1h 43mn \nOverall bit rate : 1 014 Kbps \n\n\nVideo \nID : 0 \nFormat : MPEG-4 Visual \nFormat profile : Advanced Simple@L5 \nFormat settings, BVOP : Yes \nFormat settings, QPel : No \nFormat settings, GMC : No warppoints \nFormat settings, Matrix : Default (H.263) \nMuxing mode : Packed bitstream \nCodec ID : XVID \nCodec ID/Hint : XviD \nDuration : 1h 43mn \nBit rate : 870 Kbps \nWidth : 650 pixels \nHeight : 276 pixels \nDisplay aspect ratio : 2.35:1 \nFrame rate : 23.976 fps \nResolution : 8 bits \nColorimetry : 4:2:0 \nScan type : Progressive \nBits/(Pixel*Frame) : 0.202 \nStream size : 641 MiB (86%) \n\n\nAudio \nID : 1 \nFormat : MPEG Audio \nFormat version : Version 1 \nFormat profile : Layer 3 \nMode : Joint stereo \nCodec ID : 55 \nCodec ID/Hint : MP3 \nDuration : 1h 43mn \nBit rate mode : Variable \nBit rate : 131 Kbps \nNominal bit rate : 128 Kbps \nChannel(s) : 2 channels \nSampling rate : 48.0 KHz \nStream size : 96.4 MiB (13%) \nAlignment : Aligned on interleaves \nInterleave, duration : 24 ms (0.58 video frame) \nInterleave, preload duration : 140 ms \nWriting library : LAME3.90. \n\nBought to you By\n\nUniversalAbsurdity\n\n\n\n\n","torrent":{"xt":"urn:btih:44915c949f1ca553f471d4600dd678f714611dc3","amp;dn":"Our.Family.Wedding.2010.DVDRip.XviD.UniversalAbsurdity","amp;tr":["udp%3A%2F%2Ftracker.openbittorrent.com%3A80","udp%3A%2F%2Fopen.demonii.com%3A1337","udp%3A%2F%2Ftracker.coppersurfer.tk%3A6969","udp%3A%2F%2Fexodus.desync.com%3A6969"],"infoHash":"44915c949f1ca553f471d4600dd678f714611dc3","infoHashBuffer":{"type":"Buffer","data":[68,145,92,148,159,28,165,83,244,113,212,96,13,214,120,247,20,97,29,195]},"announce":[],"urlList":[]}}